# xmcd
#
# Track frame offsets: 
#        182
#        15682
#        32407
#        54157
#        72107
#        91132
#        101932
#        124157
#        138945
#        162320
#        181632
#        197020
#
# Disc length: 2897 seconds
#
# Revision: 4
# Processed by: cddbd v1.5.2PL0 Copyright (c) Steve Scherf et al.
# Submitted via: ExactAudioCopy v1.3
#
DISCID=930b4f0c
DTITLE=Jovanotti - Lorenzo 1992
DYEAR=1992
DGENRE=Hip-Hop
TTITLE0=Il Rap
TTITLE1=Non M'Annoio
TTITLE2=Ragazzo Fortunato
TTITLE3=Puttane E Spose
TTITLE4=Benvenuti Nella Giungla
TTITLE5=Televisone Televisone
TTITLE6=Io No
TTITLE7=Sai Qual È Il Problema
TTITLE8=Chissà Se Stai Dormendo
TTITLE9=Estate 1992
TTITLE10=Vai Con Un Pò Di Violenza
TTITLE11=Ho Perso La Direzione
EXTD=
EXTT0=
EXTT1=
EXTT2=
EXTT3=
EXTT4=
EXTT5=
EXTT6=
EXTT7=
EXTT8=
EXTT9=
EXTT10=
EXTT11=
PLAYORDER=
